<mxfile host="app.diagrams.net" agent="Mozilla/5.0 (Windows NT 10.0; Win64; x64) AppleWebKit/537.36 (KHTML, like Gecko) Chrome/112.0.0.0 Safari/537.36 Edg/112.0.1722.48" version="24.7.4">
  <diagram id="KC1eWUZQNSYKR3X-Bm5X" name="Page-1">
    <mxGraphModel dx="993" dy="581" grid="1" gridSize="10" guides="1" tooltips="1" connect="1" arrows="1" fold="1" page="1" pageScale="1" pageWidth="850" pageHeight="1100" math="0" shadow="0">
      <root>
        <mxCell id="0" />
        <mxCell id="1" parent="0" />
        <mxCell id="dgRVGUKMwx5P69ynVq2U-1" value="Training Management System" style="rounded=1;whiteSpace=wrap;html=1;" vertex="1" parent="1">
          <mxGeometry x="358" y="80" width="135" height="40" as="geometry" />
        </mxCell>
        <mxCell id="dgRVGUKMwx5P69ynVq2U-3" value="Người quản lý hệ thống" style="rounded=1;whiteSpace=wrap;html=1;" vertex="1" parent="1">
          <mxGeometry x="660" y="160" width="135" height="40" as="geometry" />
        </mxCell>
        <mxCell id="dgRVGUKMwx5P69ynVq2U-4" value="Người quản lý đào tạo" style="rounded=1;whiteSpace=wrap;html=1;" vertex="1" parent="1">
          <mxGeometry x="460" y="160" width="135" height="40" as="geometry" />
        </mxCell>
        <mxCell id="dgRVGUKMwx5P69ynVq2U-5" value="Người hướng dẫn" style="rounded=1;whiteSpace=wrap;html=1;" vertex="1" parent="1">
          <mxGeometry x="233" y="160" width="135" height="40" as="geometry" />
        </mxCell>
        <mxCell id="dgRVGUKMwx5P69ynVq2U-6" value="Học viên" style="rounded=1;whiteSpace=wrap;html=1;" vertex="1" parent="1">
          <mxGeometry x="30" y="160" width="135" height="40" as="geometry" />
        </mxCell>
        <mxCell id="dgRVGUKMwx5P69ynVq2U-7" value="" style="endArrow=classic;html=1;rounded=0;entryX=0.5;entryY=0;entryDx=0;entryDy=0;exitX=0.5;exitY=1;exitDx=0;exitDy=0;" edge="1" parent="1" source="dgRVGUKMwx5P69ynVq2U-1" target="dgRVGUKMwx5P69ynVq2U-6">
          <mxGeometry width="50" height="50" relative="1" as="geometry">
            <mxPoint x="420" y="130" as="sourcePoint" />
            <mxPoint x="450" y="280" as="targetPoint" />
            <Array as="points">
              <mxPoint x="426" y="140" />
              <mxPoint x="98" y="140" />
            </Array>
          </mxGeometry>
        </mxCell>
        <mxCell id="dgRVGUKMwx5P69ynVq2U-8" value="" style="endArrow=classic;html=1;rounded=0;exitX=0.5;exitY=1;exitDx=0;exitDy=0;entryX=0.5;entryY=0;entryDx=0;entryDy=0;" edge="1" parent="1" source="dgRVGUKMwx5P69ynVq2U-1" target="dgRVGUKMwx5P69ynVq2U-5">
          <mxGeometry width="50" height="50" relative="1" as="geometry">
            <mxPoint x="400" y="330" as="sourcePoint" />
            <mxPoint x="450" y="280" as="targetPoint" />
            <Array as="points">
              <mxPoint x="426" y="140" />
              <mxPoint x="301" y="140" />
            </Array>
          </mxGeometry>
        </mxCell>
        <mxCell id="dgRVGUKMwx5P69ynVq2U-9" value="" style="endArrow=classic;html=1;rounded=0;exitX=0.5;exitY=1;exitDx=0;exitDy=0;entryX=0.5;entryY=0;entryDx=0;entryDy=0;" edge="1" parent="1" source="dgRVGUKMwx5P69ynVq2U-1" target="dgRVGUKMwx5P69ynVq2U-4">
          <mxGeometry width="50" height="50" relative="1" as="geometry">
            <mxPoint x="400" y="330" as="sourcePoint" />
            <mxPoint x="550" y="150" as="targetPoint" />
            <Array as="points">
              <mxPoint x="426" y="140" />
              <mxPoint x="528" y="140" />
            </Array>
          </mxGeometry>
        </mxCell>
        <mxCell id="dgRVGUKMwx5P69ynVq2U-10" value="" style="endArrow=classic;html=1;rounded=0;exitX=0.5;exitY=1;exitDx=0;exitDy=0;entryX=0.5;entryY=0;entryDx=0;entryDy=0;" edge="1" parent="1" source="dgRVGUKMwx5P69ynVq2U-1" target="dgRVGUKMwx5P69ynVq2U-3">
          <mxGeometry width="50" height="50" relative="1" as="geometry">
            <mxPoint x="400" y="330" as="sourcePoint" />
            <mxPoint x="450" y="280" as="targetPoint" />
            <Array as="points">
              <mxPoint x="426" y="140" />
              <mxPoint x="728" y="140" />
            </Array>
          </mxGeometry>
        </mxCell>
        <mxCell id="dgRVGUKMwx5P69ynVq2U-11" value="Đăng nhập/ Đăng xuất" style="rounded=0;whiteSpace=wrap;html=1;" vertex="1" parent="1">
          <mxGeometry x="45" y="230" width="120" height="40" as="geometry" />
        </mxCell>
        <mxCell id="dgRVGUKMwx5P69ynVq2U-12" value="Danh sách khóa học cá nhân" style="rounded=0;whiteSpace=wrap;html=1;" vertex="1" parent="1">
          <mxGeometry x="45" y="290" width="120" height="40" as="geometry" />
        </mxCell>
        <mxCell id="dgRVGUKMwx5P69ynVq2U-13" value="Làm bài kiểm tra" style="rounded=0;whiteSpace=wrap;html=1;" vertex="1" parent="1">
          <mxGeometry x="70" y="350" width="95" height="40" as="geometry" />
        </mxCell>
        <mxCell id="dgRVGUKMwx5P69ynVq2U-14" value="Đăng ký khóa học public" style="rounded=0;whiteSpace=wrap;html=1;" vertex="1" parent="1">
          <mxGeometry x="45" y="460" width="120" height="40" as="geometry" />
        </mxCell>
        <mxCell id="dgRVGUKMwx5P69ynVq2U-16" value="" style="endArrow=classic;html=1;rounded=0;exitX=0;exitY=0.5;exitDx=0;exitDy=0;entryX=0;entryY=0.5;entryDx=0;entryDy=0;" edge="1" parent="1" source="dgRVGUKMwx5P69ynVq2U-6" target="dgRVGUKMwx5P69ynVq2U-11">
          <mxGeometry width="50" height="50" relative="1" as="geometry">
            <mxPoint x="400" y="330" as="sourcePoint" />
            <mxPoint x="450" y="280" as="targetPoint" />
            <Array as="points">
              <mxPoint x="10" y="180" />
              <mxPoint x="10" y="250" />
            </Array>
          </mxGeometry>
        </mxCell>
        <mxCell id="dgRVGUKMwx5P69ynVq2U-17" value="" style="endArrow=classic;html=1;rounded=0;exitX=0;exitY=0.5;exitDx=0;exitDy=0;entryX=0;entryY=0.5;entryDx=0;entryDy=0;" edge="1" parent="1" source="dgRVGUKMwx5P69ynVq2U-6" target="dgRVGUKMwx5P69ynVq2U-12">
          <mxGeometry width="50" height="50" relative="1" as="geometry">
            <mxPoint x="40" y="190" as="sourcePoint" />
            <mxPoint x="55" y="260" as="targetPoint" />
            <Array as="points">
              <mxPoint x="10" y="180" />
              <mxPoint x="10" y="310" />
            </Array>
          </mxGeometry>
        </mxCell>
        <mxCell id="dgRVGUKMwx5P69ynVq2U-18" value="Xem video/ slide" style="rounded=0;whiteSpace=wrap;html=1;" vertex="1" parent="1">
          <mxGeometry x="70" y="400" width="95" height="40" as="geometry" />
        </mxCell>
        <mxCell id="dgRVGUKMwx5P69ynVq2U-20" value="" style="endArrow=classic;html=1;rounded=0;exitX=0;exitY=0.5;exitDx=0;exitDy=0;entryX=0;entryY=0.5;entryDx=0;entryDy=0;" edge="1" parent="1" source="dgRVGUKMwx5P69ynVq2U-6" target="dgRVGUKMwx5P69ynVq2U-14">
          <mxGeometry width="50" height="50" relative="1" as="geometry">
            <mxPoint x="400" y="330" as="sourcePoint" />
            <mxPoint x="450" y="280" as="targetPoint" />
            <Array as="points">
              <mxPoint x="10" y="180" />
              <mxPoint x="10" y="480" />
            </Array>
          </mxGeometry>
        </mxCell>
        <mxCell id="dgRVGUKMwx5P69ynVq2U-21" value="" style="endArrow=classic;html=1;rounded=0;exitX=0;exitY=0.75;exitDx=0;exitDy=0;entryX=0;entryY=0.5;entryDx=0;entryDy=0;" edge="1" parent="1" source="dgRVGUKMwx5P69ynVq2U-12" target="dgRVGUKMwx5P69ynVq2U-13">
          <mxGeometry width="50" height="50" relative="1" as="geometry">
            <mxPoint x="400" y="330" as="sourcePoint" />
            <mxPoint x="450" y="280" as="targetPoint" />
            <Array as="points">
              <mxPoint x="30" y="320" />
              <mxPoint x="30" y="370" />
            </Array>
          </mxGeometry>
        </mxCell>
        <mxCell id="dgRVGUKMwx5P69ynVq2U-22" value="" style="endArrow=classic;html=1;rounded=0;exitX=0;exitY=0.75;exitDx=0;exitDy=0;entryX=0;entryY=0.5;entryDx=0;entryDy=0;" edge="1" parent="1" source="dgRVGUKMwx5P69ynVq2U-12">
          <mxGeometry width="50" height="50" relative="1" as="geometry">
            <mxPoint x="45" y="370" as="sourcePoint" />
            <mxPoint x="70" y="420" as="targetPoint" />
            <Array as="points">
              <mxPoint x="30" y="320" />
              <mxPoint x="30" y="420" />
            </Array>
          </mxGeometry>
        </mxCell>
        <mxCell id="dgRVGUKMwx5P69ynVq2U-23" value="Đăng nhập/ Đăng xuất" style="rounded=0;whiteSpace=wrap;html=1;" vertex="1" parent="1">
          <mxGeometry x="248" y="230" width="120" height="40" as="geometry" />
        </mxCell>
        <mxCell id="dgRVGUKMwx5P69ynVq2U-24" value="Quản lý học viên" style="rounded=0;whiteSpace=wrap;html=1;" vertex="1" parent="1">
          <mxGeometry x="248" y="290" width="120" height="40" as="geometry" />
        </mxCell>
        <mxCell id="dgRVGUKMwx5P69ynVq2U-25" value="Quản lý khóa học" style="rounded=0;whiteSpace=wrap;html=1;" vertex="1" parent="1">
          <mxGeometry x="248" y="350" width="120" height="40" as="geometry" />
        </mxCell>
        <mxCell id="dgRVGUKMwx5P69ynVq2U-26" value="Thêm/ Sửa khóa học" style="rounded=0;whiteSpace=wrap;html=1;" vertex="1" parent="1">
          <mxGeometry x="273" y="410" width="95" height="40" as="geometry" />
        </mxCell>
        <mxCell id="dgRVGUKMwx5P69ynVq2U-27" value="Tạo bài kiểm tra" style="rounded=0;whiteSpace=wrap;html=1;" vertex="1" parent="1">
          <mxGeometry x="273" y="460" width="95" height="40" as="geometry" />
        </mxCell>
        <mxCell id="dgRVGUKMwx5P69ynVq2U-28" value="Quản lý điểm kiểm tra" style="rounded=0;whiteSpace=wrap;html=1;" vertex="1" parent="1">
          <mxGeometry x="273" y="510" width="95" height="40" as="geometry" />
        </mxCell>
        <mxCell id="dgRVGUKMwx5P69ynVq2U-29" value="Thống kê" style="rounded=0;whiteSpace=wrap;html=1;" vertex="1" parent="1">
          <mxGeometry x="273" y="560" width="95" height="40" as="geometry" />
        </mxCell>
        <mxCell id="dgRVGUKMwx5P69ynVq2U-30" value="" style="endArrow=classic;html=1;rounded=0;exitX=0;exitY=0.5;exitDx=0;exitDy=0;entryX=0;entryY=0.5;entryDx=0;entryDy=0;" edge="1" parent="1" source="dgRVGUKMwx5P69ynVq2U-5" target="dgRVGUKMwx5P69ynVq2U-23">
          <mxGeometry width="50" height="50" relative="1" as="geometry">
            <mxPoint x="400" y="420" as="sourcePoint" />
            <mxPoint x="450" y="370" as="targetPoint" />
            <Array as="points">
              <mxPoint x="220" y="180" />
              <mxPoint x="220" y="250" />
            </Array>
          </mxGeometry>
        </mxCell>
        <mxCell id="dgRVGUKMwx5P69ynVq2U-31" value="" style="endArrow=classic;html=1;rounded=0;exitX=0;exitY=0.5;exitDx=0;exitDy=0;entryX=0;entryY=0.5;entryDx=0;entryDy=0;" edge="1" parent="1" source="dgRVGUKMwx5P69ynVq2U-5">
          <mxGeometry width="50" height="50" relative="1" as="geometry">
            <mxPoint x="233" y="240" as="sourcePoint" />
            <mxPoint x="248" y="310" as="targetPoint" />
            <Array as="points">
              <mxPoint x="220" y="180" />
              <mxPoint x="220" y="310" />
            </Array>
          </mxGeometry>
        </mxCell>
        <mxCell id="dgRVGUKMwx5P69ynVq2U-32" value="" style="endArrow=classic;html=1;rounded=0;exitX=0;exitY=0.5;exitDx=0;exitDy=0;entryX=0;entryY=0.5;entryDx=0;entryDy=0;" edge="1" parent="1" source="dgRVGUKMwx5P69ynVq2U-5">
          <mxGeometry width="50" height="50" relative="1" as="geometry">
            <mxPoint x="233" y="300" as="sourcePoint" />
            <mxPoint x="248" y="370" as="targetPoint" />
            <Array as="points">
              <mxPoint x="220" y="180" />
              <mxPoint x="220" y="370" />
            </Array>
          </mxGeometry>
        </mxCell>
        <mxCell id="dgRVGUKMwx5P69ynVq2U-33" value="" style="endArrow=classic;html=1;rounded=0;exitX=0;exitY=0.75;exitDx=0;exitDy=0;entryX=0;entryY=0.5;entryDx=0;entryDy=0;" edge="1" parent="1" source="dgRVGUKMwx5P69ynVq2U-25" target="dgRVGUKMwx5P69ynVq2U-26">
          <mxGeometry width="50" height="50" relative="1" as="geometry">
            <mxPoint x="400" y="420" as="sourcePoint" />
            <mxPoint x="450" y="370" as="targetPoint" />
            <Array as="points">
              <mxPoint x="230" y="380" />
              <mxPoint x="230" y="430" />
            </Array>
          </mxGeometry>
        </mxCell>
        <mxCell id="dgRVGUKMwx5P69ynVq2U-34" value="" style="endArrow=classic;html=1;rounded=0;exitX=0;exitY=0.75;exitDx=0;exitDy=0;entryX=0;entryY=0.5;entryDx=0;entryDy=0;" edge="1" parent="1" source="dgRVGUKMwx5P69ynVq2U-25">
          <mxGeometry width="50" height="50" relative="1" as="geometry">
            <mxPoint x="248" y="430" as="sourcePoint" />
            <mxPoint x="273" y="480" as="targetPoint" />
            <Array as="points">
              <mxPoint x="230" y="380" />
              <mxPoint x="230" y="480" />
            </Array>
          </mxGeometry>
        </mxCell>
        <mxCell id="dgRVGUKMwx5P69ynVq2U-35" value="" style="endArrow=classic;html=1;rounded=0;exitX=0;exitY=0.75;exitDx=0;exitDy=0;entryX=0;entryY=0.5;entryDx=0;entryDy=0;" edge="1" parent="1" source="dgRVGUKMwx5P69ynVq2U-25">
          <mxGeometry width="50" height="50" relative="1" as="geometry">
            <mxPoint x="248" y="430" as="sourcePoint" />
            <mxPoint x="273" y="530" as="targetPoint" />
            <Array as="points">
              <mxPoint x="230" y="380" />
              <mxPoint x="230" y="530" />
            </Array>
          </mxGeometry>
        </mxCell>
        <mxCell id="dgRVGUKMwx5P69ynVq2U-36" value="" style="endArrow=classic;html=1;rounded=0;exitX=0;exitY=0.75;exitDx=0;exitDy=0;entryX=0;entryY=0.5;entryDx=0;entryDy=0;" edge="1" parent="1" source="dgRVGUKMwx5P69ynVq2U-25">
          <mxGeometry width="50" height="50" relative="1" as="geometry">
            <mxPoint x="248" y="430" as="sourcePoint" />
            <mxPoint x="273" y="580" as="targetPoint" />
            <Array as="points">
              <mxPoint x="230" y="380" />
              <mxPoint x="230" y="580" />
            </Array>
          </mxGeometry>
        </mxCell>
        <mxCell id="dgRVGUKMwx5P69ynVq2U-37" value="Đăng nhập/ Đăng xuất" style="rounded=0;whiteSpace=wrap;html=1;" vertex="1" parent="1">
          <mxGeometry x="475" y="230" width="120" height="40" as="geometry" />
        </mxCell>
        <mxCell id="dgRVGUKMwx5P69ynVq2U-38" value="Quản lý học viên" style="rounded=0;whiteSpace=wrap;html=1;" vertex="1" parent="1">
          <mxGeometry x="475" y="290" width="120" height="40" as="geometry" />
        </mxCell>
        <mxCell id="dgRVGUKMwx5P69ynVq2U-39" value="Quản lý giáo viên" style="rounded=0;whiteSpace=wrap;html=1;" vertex="1" parent="1">
          <mxGeometry x="475" y="350" width="120" height="40" as="geometry" />
        </mxCell>
        <mxCell id="dgRVGUKMwx5P69ynVq2U-40" value="Quản lý khóa học" style="rounded=0;whiteSpace=wrap;html=1;" vertex="1" parent="1">
          <mxGeometry x="475" y="410" width="120" height="40" as="geometry" />
        </mxCell>
        <mxCell id="dgRVGUKMwx5P69ynVq2U-45" value="Thêm/ Sửa khóa học" style="rounded=0;whiteSpace=wrap;html=1;" vertex="1" parent="1">
          <mxGeometry x="500" y="470" width="95" height="40" as="geometry" />
        </mxCell>
        <mxCell id="dgRVGUKMwx5P69ynVq2U-46" value="Tạo bài kiểm tra" style="rounded=0;whiteSpace=wrap;html=1;" vertex="1" parent="1">
          <mxGeometry x="500" y="520" width="95" height="40" as="geometry" />
        </mxCell>
        <mxCell id="dgRVGUKMwx5P69ynVq2U-47" value="Quản lý điểm kiểm tra" style="rounded=0;whiteSpace=wrap;html=1;" vertex="1" parent="1">
          <mxGeometry x="500" y="570" width="95" height="40" as="geometry" />
        </mxCell>
        <mxCell id="dgRVGUKMwx5P69ynVq2U-48" value="Thống kê" style="rounded=0;whiteSpace=wrap;html=1;" vertex="1" parent="1">
          <mxGeometry x="500" y="620" width="95" height="40" as="geometry" />
        </mxCell>
        <mxCell id="dgRVGUKMwx5P69ynVq2U-49" value="" style="endArrow=classic;html=1;rounded=0;exitX=0;exitY=0.75;exitDx=0;exitDy=0;entryX=0;entryY=0.5;entryDx=0;entryDy=0;" edge="1" parent="1" target="dgRVGUKMwx5P69ynVq2U-45">
          <mxGeometry width="50" height="50" relative="1" as="geometry">
            <mxPoint x="475" y="440" as="sourcePoint" />
            <mxPoint x="677" y="430" as="targetPoint" />
            <Array as="points">
              <mxPoint x="457" y="440" />
              <mxPoint x="457" y="490" />
            </Array>
          </mxGeometry>
        </mxCell>
        <mxCell id="dgRVGUKMwx5P69ynVq2U-50" value="" style="endArrow=classic;html=1;rounded=0;exitX=0;exitY=0.75;exitDx=0;exitDy=0;entryX=0;entryY=0.5;entryDx=0;entryDy=0;" edge="1" parent="1">
          <mxGeometry width="50" height="50" relative="1" as="geometry">
            <mxPoint x="475" y="440" as="sourcePoint" />
            <mxPoint x="500" y="540" as="targetPoint" />
            <Array as="points">
              <mxPoint x="457" y="440" />
              <mxPoint x="457" y="540" />
            </Array>
          </mxGeometry>
        </mxCell>
        <mxCell id="dgRVGUKMwx5P69ynVq2U-51" value="" style="endArrow=classic;html=1;rounded=0;exitX=0;exitY=0.75;exitDx=0;exitDy=0;entryX=0;entryY=0.5;entryDx=0;entryDy=0;" edge="1" parent="1">
          <mxGeometry width="50" height="50" relative="1" as="geometry">
            <mxPoint x="475" y="440" as="sourcePoint" />
            <mxPoint x="500" y="590" as="targetPoint" />
            <Array as="points">
              <mxPoint x="457" y="440" />
              <mxPoint x="457" y="590" />
            </Array>
          </mxGeometry>
        </mxCell>
        <mxCell id="dgRVGUKMwx5P69ynVq2U-52" value="" style="endArrow=classic;html=1;rounded=0;exitX=0;exitY=0.75;exitDx=0;exitDy=0;entryX=0;entryY=0.5;entryDx=0;entryDy=0;" edge="1" parent="1">
          <mxGeometry width="50" height="50" relative="1" as="geometry">
            <mxPoint x="475" y="440" as="sourcePoint" />
            <mxPoint x="500" y="640" as="targetPoint" />
            <Array as="points">
              <mxPoint x="457" y="440" />
              <mxPoint x="457" y="640" />
            </Array>
          </mxGeometry>
        </mxCell>
        <mxCell id="dgRVGUKMwx5P69ynVq2U-53" value="" style="endArrow=classic;html=1;rounded=0;exitX=0;exitY=0.5;exitDx=0;exitDy=0;entryX=0;entryY=0.5;entryDx=0;entryDy=0;" edge="1" parent="1">
          <mxGeometry width="50" height="50" relative="1" as="geometry">
            <mxPoint x="460" y="180" as="sourcePoint" />
            <mxPoint x="475" y="250" as="targetPoint" />
            <Array as="points">
              <mxPoint x="447" y="180" />
              <mxPoint x="447" y="250" />
            </Array>
          </mxGeometry>
        </mxCell>
        <mxCell id="dgRVGUKMwx5P69ynVq2U-54" value="" style="endArrow=classic;html=1;rounded=0;exitX=0;exitY=0.5;exitDx=0;exitDy=0;entryX=0;entryY=0.5;entryDx=0;entryDy=0;" edge="1" parent="1">
          <mxGeometry width="50" height="50" relative="1" as="geometry">
            <mxPoint x="460" y="180" as="sourcePoint" />
            <mxPoint x="475" y="310" as="targetPoint" />
            <Array as="points">
              <mxPoint x="447" y="180" />
              <mxPoint x="447" y="310" />
            </Array>
          </mxGeometry>
        </mxCell>
        <mxCell id="dgRVGUKMwx5P69ynVq2U-55" value="" style="endArrow=classic;html=1;rounded=0;exitX=0;exitY=0.5;exitDx=0;exitDy=0;entryX=0;entryY=0.5;entryDx=0;entryDy=0;" edge="1" parent="1">
          <mxGeometry width="50" height="50" relative="1" as="geometry">
            <mxPoint x="460" y="180" as="sourcePoint" />
            <mxPoint x="475" y="370" as="targetPoint" />
            <Array as="points">
              <mxPoint x="447" y="180" />
              <mxPoint x="447" y="370" />
            </Array>
          </mxGeometry>
        </mxCell>
        <mxCell id="dgRVGUKMwx5P69ynVq2U-56" value="" style="endArrow=classic;html=1;rounded=0;exitX=0;exitY=0.5;exitDx=0;exitDy=0;entryX=0;entryY=0.5;entryDx=0;entryDy=0;" edge="1" parent="1" source="dgRVGUKMwx5P69ynVq2U-4">
          <mxGeometry width="50" height="50" relative="1" as="geometry">
            <mxPoint x="460" y="240" as="sourcePoint" />
            <mxPoint x="475" y="430" as="targetPoint" />
            <Array as="points">
              <mxPoint x="447" y="180" />
              <mxPoint x="447" y="430" />
            </Array>
          </mxGeometry>
        </mxCell>
        <mxCell id="dgRVGUKMwx5P69ynVq2U-58" value="Đăng nhập/ Đăng xuất" style="rounded=0;whiteSpace=wrap;html=1;" vertex="1" parent="1">
          <mxGeometry x="675" y="230" width="120" height="40" as="geometry" />
        </mxCell>
        <mxCell id="dgRVGUKMwx5P69ynVq2U-59" value="Quan ly tai khoan&amp;nbsp;" style="rounded=0;whiteSpace=wrap;html=1;" vertex="1" parent="1">
          <mxGeometry x="675" y="290" width="120" height="40" as="geometry" />
        </mxCell>
        <mxCell id="dgRVGUKMwx5P69ynVq2U-61" value="" style="endArrow=classic;html=1;rounded=0;exitX=0;exitY=0.5;exitDx=0;exitDy=0;entryX=0;entryY=0.5;entryDx=0;entryDy=0;" edge="1" parent="1">
          <mxGeometry width="50" height="50" relative="1" as="geometry">
            <mxPoint x="660" y="180" as="sourcePoint" />
            <mxPoint x="675" y="250" as="targetPoint" />
            <Array as="points">
              <mxPoint x="647" y="180" />
              <mxPoint x="647" y="250" />
            </Array>
          </mxGeometry>
        </mxCell>
        <mxCell id="dgRVGUKMwx5P69ynVq2U-62" value="" style="endArrow=classic;html=1;rounded=0;exitX=0;exitY=0.5;exitDx=0;exitDy=0;entryX=0;entryY=0.5;entryDx=0;entryDy=0;" edge="1" parent="1">
          <mxGeometry width="50" height="50" relative="1" as="geometry">
            <mxPoint x="660" y="180" as="sourcePoint" />
            <mxPoint x="675" y="310" as="targetPoint" />
            <Array as="points">
              <mxPoint x="647" y="180" />
              <mxPoint x="647" y="310" />
            </Array>
          </mxGeometry>
        </mxCell>
      </root>
    </mxGraphModel>
  </diagram>
</mxfile>
